<?xml version="1.0" encoding="UTF-8" standalone="no"?>
<!-- Created with Inkscape (http://www.inkscape.org/) -->

<svg
   xmlns:dc="http://purl.org/dc/elements/1.1/"
   xmlns:cc="http://creativecommons.org/ns#"
   xmlns:rdf="http://www.w3.org/1999/02/22-rdf-syntax-ns#"
   xmlns:svg="http://www.w3.org/2000/svg"
   xmlns="http://www.w3.org/2000/svg"
   xmlns:sodipodi="http://sodipodi.sourceforge.net/DTD/sodipodi-0.dtd"
   xmlns:inkscape="http://www.inkscape.org/namespaces/inkscape"
   version="1.1"
   id="svg2"
   xml:space="preserve"
   width="500"
   height="500"
   viewBox="0 0 500 500"
   sodipodi:docname="009-pump.svg"
   inkscape:version="0.92.2 2405546, 2018-03-11"
   inkscape:export-filename="/home/jose/Downloads/wiim_tmp/icons/original/pump.png"
   inkscape:export-xdpi="96"
   inkscape:export-ydpi="96"><metadata
     id="metadata8"><rdf:RDF><cc:Work
         rdf:about=""><dc:format>image/svg+xml</dc:format><dc:type
           rdf:resource="http://purl.org/dc/dcmitype/StillImage" /><dc:title /></cc:Work></rdf:RDF></metadata><defs
     id="defs6" /><sodipodi:namedview
     pagecolor="#ffffff"
     bordercolor="#666666"
     borderopacity="1"
     objecttolerance="10"
     gridtolerance="10"
     guidetolerance="10"
     inkscape:pageopacity="0"
     inkscape:pageshadow="2"
     inkscape:window-width="1600"
     inkscape:window-height="835"
     id="namedview4"
     showgrid="false"
     showguides="true"
     inkscape:guide-bbox="true"
     inkscape:zoom="0.99718308"
     inkscape:cx="256.40856"
     inkscape:cy="284.23008"
     inkscape:window-x="0"
     inkscape:window-y="0"
     inkscape:window-maximized="1"
     inkscape:current-layer="layer2" /><g
     inkscape:groupmode="layer"
     id="layer2"
     inkscape:label="Layer 2"
     transform="matrix(1.3333333,0,0,-1.3333333,0,501.66162)"><path
       d="m 305.28181,147.13809 63.53684,28.75591 c 2.65423,1.20127 4.78699,4.70588 4.78699,8.63887 v 28.50368 c 0,3.93401 -2.38991,6.98402 -4.78699,8.63989 l -63.53684,28.75591 z"
       style="display:inline;fill:#193650;fill-opacity:1;fill-rule:nonzero;stroke:none;stroke-width:0.08269466"
       id="path20"
       inkscape:connector-curvature="0"
       sodipodi:nodetypes="csssscc" /><rect
       style="display:inline;fill:#193650;fill-opacity:1;stroke-width:0.68156421"
       id="rect1269"
       width="56.700535"
       height="158.07417"
       x="265.17215"
       y="-368.52527"
       transform="scale(1,-1)"
       rx="0"
       ry="0" /><rect
       style="fill:#193650;fill-opacity:1;stroke-width:0.62811863"
       id="rect1272"
       width="109.39194"
       height="25.11883"
       x="239.3992"
       y="-374.83969"
       transform="scale(1,-1)"
       ry="5.7114558"
       rx="4.4422426" /></g><g
     id="g10"
     inkscape:groupmode="layer"
     inkscape:label="ink_ext_XXXXXX"
     transform="matrix(1.3333333,0,0,-1.3333333,0,501.66162)"
     style="display:inline"><g
       inkscape:groupmode="layer"
       id="layer1"
       inkscape:label="Layer 1"><rect
         style="display:inline;fill:#193650;fill-opacity:1;stroke-width:0.68794048"
         id="rect851"
         width="29.269293"
         height="105.36945"
         x="238.89395"
         y="-251.50722"
         inkscape:transform-center-x="0.45993045"
         inkscape:transform-center-y="-0.57487396"
         transform="scale(1,-1)" /></g><g
       id="g12"
       transform="matrix(0.07796659,0,0,0.07796659,0,45.002208)"><path
         d="m 1968.75,2696.08 h 423.75 v 406.21 H 988.828 v -406.21 z"
         style="fill:#285680;fill-opacity:1;fill-rule:nonzero;stroke:none"
         id="path14"
         inkscape:connector-curvature="0"
         sodipodi:nodetypes="cccccc" /><path
         d="m 847.461,294.988 h 1756.76 V 1142.41 H 847.461 Z"
         style="fill:#285680;fill-opacity:1;fill-rule:nonzero;stroke:none"
         id="path16"
         inkscape:connector-curvature="0"
         sodipodi:nodetypes="ccccc" /><path
         d="M 2877.93,2837.33 V 1001.16 H 918.09 C 411.02,1001.16 0,1412.21 0,1919.24 c 0,507.03 411.02,918.09 918.09,918.09 z"
         style="fill:#4482c3;fill-opacity:1;fill-rule:nonzero;stroke:none"
         id="path18"
         inkscape:connector-curvature="0"
         sodipodi:nodetypes="ccsssc" /><path
         d="M 3160.43,2554.83 V 1283.66 c 0,-156.02 -123.1561,-282.5 -279.1761,-282.5 H 2807.3 v 1836.17 h 70.63 c 156.02,0 282.5,-126.49 282.5,-282.5 z"
         style="fill:#285680;fill-opacity:1;fill-rule:nonzero;stroke:none"
         id="path22"
         inkscape:connector-curvature="0"
         sodipodi:nodetypes="sssccss" /><path
         d="M 2312.97,1424.91 H 847.461 c -39.02,0 -70.621,-31.64 -70.621,-70.63 0,-39.02 31.601,-70.62 70.621,-70.62 H 2312.97 c 38.98,0 70.62,31.6 70.62,70.62 0,38.99 -31.64,70.63 -70.62,70.63 z"
         style="fill:#285680;fill-opacity:1;fill-rule:nonzero;stroke:none"
         id="path24"
         inkscape:connector-curvature="0"
         sodipodi:nodetypes="sssssss" /><path
         d="M 847.461,2413.58 H 2312.97 c 38.98,0 70.62,31.64 70.62,70.62 0,39.03 -31.64,70.63 -70.62,70.63 H 847.461 c -39.02,0 -70.621,-31.6 -70.621,-70.63 0,-38.98 31.601,-70.62 70.621,-70.62 z"
         style="fill:#285680;fill-opacity:1;fill-rule:nonzero;stroke:none"
         id="path26"
         inkscape:connector-curvature="0"
         sodipodi:nodetypes="sssssss" /><path
         d="M 2312.97,1777.99 H 847.461 c -39.02,0 -70.621,-31.6 -70.621,-70.62 0,-38.99 31.601,-70.63 70.621,-70.63 H 2312.97 c 38.98,0 70.62,31.64 70.62,70.63 0,39.02 -31.64,70.62 -70.62,70.62 z"
         style="fill:#285680;fill-opacity:1;fill-rule:nonzero;stroke:none"
         id="path28"
         inkscape:connector-curvature="0"
         sodipodi:nodetypes="sssssss" /><path
         d="M 2312.97,2201.74 H 847.461 c -39.02,0 -70.621,-31.64 -70.621,-70.62 0,-39.03 31.601,-70.63 70.621,-70.63 H 2312.97 c 38.98,0 70.62,31.6 70.62,70.63 0,38.98 -31.64,70.62 -70.62,70.62 z"
         style="fill:#285680;fill-opacity:1;fill-rule:nonzero;stroke:none"
         id="path30"
         inkscape:connector-curvature="0"
         sodipodi:nodetypes="sssssss" /><path
         d="M 3027.93,294.98 V 83.1094 c -1.17,-40 -34.41,-71.5196 -74.41,-70.6289 H 498.16 c -40,-0.8907 -73.238,30.6289 -74.449,70.6289 V 294.98 c 1.211,39.969 34.449,71.532 74.449,70.59 h 2455.36 c 40,0.942 73.24,-30.621 74.41,-70.59 z"
         style="fill:#4482c3;fill-opacity:1;fill-rule:nonzero;stroke:none"
         id="path32"
         inkscape:connector-curvature="0"
         sodipodi:nodetypes="ccccccccc" /><path
         d="m 2392.34,2961.04 h 27 c 24.45,0 47.14,12.69 60.04,33.51 12.85,20.79 14.02,46.8 3.08,68.68 l -70.62,141.25 c -11.92,23.86 -36.29,38.98 -63.01,39.02 H 1023.98 c -22.22,0 -43.121,-10.43 -56.48,-28.24 L 861.559,3074.05 c -16.047,-21.41 -18.629,-50.04 -6.637,-73.99 11.957,-23.9 36.406,-39.02 63.168,-39.02 z"
         style="fill:#4482c3;fill-opacity:1;fill-rule:nonzero;stroke:none"
         id="path34"
         inkscape:connector-curvature="0"
         sodipodi:nodetypes="csccccscccsc" /><path
         d="m 564.961,1320.1 c -13.941,-0.04 -27.621,4.14 -39.18,11.92 -196.133,131.05 -313.902,351.36 -313.902,587.22 0,235.86 117.769,456.17 313.902,587.23 20.938,14.53 48.129,16.64 71.098,5.51 22.961,-11.14 38.121,-33.79 39.68,-59.26 1.531,-25.51 -10.821,-49.81 -32.258,-63.63 C 447.34,2284.28 353.09,2107.99 353.09,1919.24 c 0,-188.75 94.25,-365.04 251.211,-469.84 25.859,-17.31 37.34,-49.49 28.277,-79.22 -9.058,-29.77 -36.527,-50.12 -67.617,-50.08 z"
         style="fill:#9fc9d3;fill-opacity:1;fill-rule:nonzero;stroke:none"
         id="path36"
         inkscape:connector-curvature="0" /></g><rect
       style="display:inline;fill:#285680;fill-opacity:1;stroke-width:1.1820538"
       id="rect843"
       width="86.807762"
       height="249.84613"
       x="265.07654"
       y="-319.79321"
       ry="28.55731"
       rx="33.153244"
       transform="scale(1,-1)" /></g></svg>