<svg xmlns="http://www.w3.org/2000/svg" viewBox="0 0 300 300"><defs><style>.cls-1{fill:#662d91;}.cls-2{fill:#fff;}</style></defs><title>wiim_boxborder</title><g id="Camada_2" data-name="Camada 2"><g id="Camada_1-2" data-name="Camada 1"><rect class="cls-1" x="5" y="5" width="290" height="290" rx="35" ry="35"/><path class="cls-2" d="M260,10a30,30,0,0,1,30,30V260a30,30,0,0,1-30,30H40a30,30,0,0,1-30-30V40A30,30,0,0,1,40,10H260m0-10H40A40.12,40.12,0,0,0,0,40V260a40.12,40.12,0,0,0,40,40H260a40.12,40.12,0,0,0,40-40V40A40.12,40.12,0,0,0,260,0Z"/><path class="cls-2" d="M158.78,126.45l27.3,0,13.89,46h.35l21-85,27.82,0,32.88,125-27.47,0L234.87,127.4h-.35l-21.83,85-25.72,0-14.07-47.05h-.35l-11.48,47.17-27,0Z"/><path class="cls-2" d="M127.87,212.52h-27.3l-11-46.13H89.2l-10,46.13H51.4L18.32,87.57H45.8l19.78,85h.35l10.86-46.13H102.5l11.19,47.18H114l11.56-47.18H151Z"/><path class="cls-2" d="M182.74,88.25A16.28,16.28,0,1,0,194.59,108,16.24,16.24,0,0,0,182.74,88.25Z"/><path class="cls-2" d="M146.69,88.25A16.28,16.28,0,1,0,158.54,108,16.24,16.24,0,0,0,146.69,88.25Z"/></g></g></svg>