<?xml version="1.0" encoding="UTF-8" standalone="no"?>
<svg
   xmlns:dc="http://purl.org/dc/elements/1.1/"
   xmlns:cc="http://creativecommons.org/ns#"
   xmlns:rdf="http://www.w3.org/1999/02/22-rdf-syntax-ns#"
   xmlns:svg="http://www.w3.org/2000/svg"
   xmlns="http://www.w3.org/2000/svg"
   xmlns:sodipodi="http://sodipodi.sourceforge.net/DTD/sodipodi-0.dtd"
   xmlns:inkscape="http://www.inkscape.org/namespaces/inkscape"
   id="svg1067"
   version="1.1"
   viewBox="0 0 105.83333 105.83333"
   height="105.83333mm"
   width="105.83333mm"
   sodipodi:docname="wiim_boxborder.svg"
   inkscape:version="0.92.2 2405546, 2018-03-11">
  <sodipodi:namedview
     pagecolor="#ffffff"
     bordercolor="#666666"
     borderopacity="1"
     objecttolerance="10"
     gridtolerance="10"
     guidetolerance="10"
     inkscape:pageopacity="0"
     inkscape:pageshadow="2"
     inkscape:window-width="803"
     inkscape:window-height="480"
     id="namedview18"
     showgrid="false"
     inkscape:zoom="0.59000003"
     inkscape:cx="199.99999"
     inkscape:cy="199.99999"
     inkscape:window-x="590"
     inkscape:window-y="116"
     inkscape:window-maximized="0"
     inkscape:current-layer="g192" />
  <defs
     id="defs1061" />
  <metadata
     id="metadata1064">
    <rdf:RDF>
      <cc:Work
         rdf:about="">
        <dc:format>image/svg+xml</dc:format>
        <dc:type
           rdf:resource="http://purl.org/dc/dcmitype/StillImage" />
        <dc:title />
      </cc:Work>
    </rdf:RDF>
  </metadata>
  <g
     transform="translate(-46.11309,-84.577382)"
     id="layer1">
    <g
       transform="matrix(0.35277777,0,0,-0.35277777,60.224213,188.64682)"
       id="g192">
      <path
         id="path194"
         style="fill:#662d91;fill-opacity:1;fill-rule:nonzero;stroke:none"
         d="m 0,0 c -19.299,0 -35,15.701 -35,35 v 220 c 0,19.299 15.701,35 35,35 h 220 c 19.299,0 35,-15.701 35,-35 V 35 C 255,15.701 239.299,0 220,0 Z" />
    </g>
    <g
       transform="matrix(0.35277777,0,0,-0.35277777,137.83531,84.577382)"
       id="g196">
      <path
         id="path198"
         style="fill:#ffffff;fill-opacity:1;fill-rule:nonzero;stroke:none"
         d="m 0,0 h -220 c -22,0 -40,-18 -40,-40 v -220 c 0,-22 18,-40 40,-40 H 0 c 22,0 40,18 40,40 V -40 C 40,-18 22,0 0,0 m 0,-10 c 16.542,0 30,-13.458 30,-30 v -220 c 0,-16.542 -13.458,-30 -30,-30 h -220 c -16.542,0 -30,13.458 -30,30 v 220 c 0,16.542 13.458,30 30,30 H 0" />
    </g>
    <g
       transform="matrix(0.35277777,0,0,-0.35277777,102.12553,129.18536)"
       id="g200">
      <path
         id="path202"
         style="fill:#ffffff;fill-opacity:1;fill-rule:nonzero;stroke:none"
         d="m 0,0 27.3,-0.043 13.893,-46.002 0.35,-10e-4 20.96,85.017 27.825,-0.044 32.877,-125.002 -27.475,0.043 -19.64,85.081 -0.351,0.001 -21.834,-85.016 -25.724,0.041 -14.068,47.052 -0.349,10e-4 -11.483,-47.17 -26.95,0.042 z" />
    </g>
    <g
       transform="matrix(0.35277777,0,0,-0.35277777,91.222823,159.55074)"
       id="g204">
      <path
         id="path206"
         style="fill:#ffffff;fill-opacity:1;fill-rule:nonzero;stroke:none"
         d="m 0,0 h -27.3 l -11.016,46.132 h -0.35 L -48.649,0 h -27.826 l -33.075,124.95 h 27.476 L -62.3,39.9 h 0.351 l 10.858,46.132 h 25.725 L -14.175,38.85 h 0.351 l 11.558,47.182 h 25.443 z" />
    </g>
    <g
       transform="matrix(0.35277777,0,0,-0.35277777,110.5808,115.71055)"
       id="g208">
      <path
         id="path210"
         style="fill:#ffffff;fill-opacity:1;fill-rule:nonzero;stroke:none"
         d="m 0,0 c -8.829,2.206 -17.572,-3.187 -19.735,-11.845 -2.163,-8.659 3.016,-17.529 11.844,-19.735 8.66,-2.163 17.572,3.186 19.735,11.845 C 14.008,-11.076 8.658,-2.164 0,0" />
    </g>
    <g
       transform="matrix(0.35277777,0,0,-0.35277777,97.862883,115.71055)"
       id="g212">
      <path
         id="path214"
         style="fill:#ffffff;fill-opacity:1;fill-rule:nonzero;stroke:none"
         d="m 0,0 c -8.828,2.206 -17.571,-3.187 -19.734,-11.845 -2.163,-8.659 3.015,-17.529 11.844,-19.735 8.66,-2.163 17.572,3.186 19.735,11.845 C 14.008,-11.076 8.659,-2.164 0,0" />
    </g>
  </g>
</svg>
